<svg width="323" height="58" viewBox="0 0 323 58" fill="none" xmlns="http://www.w3.org/2000/svg">
<path d="M96.652 27.744H87.724L85.516 32H80.812L92.812 9.632H98.028L102.092 32H97.356L96.652 27.744ZM96.076 24.256L94.476 14.784L89.548 24.256H96.076Z" fill="#8E2F3F"/>
<path d="M106.022 20.8C106.406 18.6027 107.238 16.64 108.518 14.912C109.82 13.1627 111.409 11.808 113.286 10.848C115.185 9.86667 117.201 9.376 119.334 9.376C121.83 9.376 123.91 10.016 125.574 11.296C127.238 12.576 128.241 14.3467 128.582 16.608H123.43C123.089 15.584 122.502 14.816 121.67 14.304C120.838 13.7707 119.814 13.504 118.598 13.504C117.297 13.504 116.081 13.8027 114.95 14.4C113.841 14.9973 112.902 15.8507 112.134 16.96C111.388 18.0693 110.886 19.3493 110.63 20.8C110.524 21.4827 110.47 22.048 110.47 22.496C110.47 24.224 110.961 25.5893 111.942 26.592C112.945 27.5947 114.3 28.096 116.006 28.096C117.222 28.096 118.342 27.8293 119.366 27.296C120.39 26.7627 121.254 25.984 121.958 24.96H127.11C125.958 27.2427 124.326 29.024 122.214 30.304C120.124 31.5627 117.83 32.192 115.334 32.192C113.457 32.192 111.793 31.8187 110.342 31.072C108.913 30.304 107.804 29.2267 107.014 27.84C106.225 26.4533 105.83 24.864 105.83 23.072C105.83 22.3253 105.894 21.568 106.022 20.8ZM157.977 9.664L154.041 32H149.529L152.089 17.536L143.577 32H140.153L136.729 17.504L134.169 32H129.657L133.625 9.664H138.713L142.905 26.24L152.889 9.664H157.977ZM166.278 13.152L165.254 18.944H172.774L172.166 22.4H164.646L163.59 28.448H172.07L171.43 32H158.438L162.406 9.632H175.366L174.758 13.152H166.278ZM86.55 38.622L83.844 54H82.304L85.01 38.622H86.55ZM95.1414 41.768C96.3734 41.768 97.3561 42.1053 98.0894 42.78C98.8374 43.44 99.2114 44.408 99.2114 45.684C99.2114 46.1533 99.1747 46.5787 99.1014 46.96L97.8474 54H96.3294L97.5394 47.136C97.5981 46.7987 97.6274 46.4393 97.6274 46.058C97.6274 45.09 97.3634 44.3567 96.8354 43.858C96.3074 43.3593 95.5667 43.11 94.6134 43.11C93.4547 43.11 92.4647 43.4767 91.6434 44.21C90.8221 44.9433 90.2867 46.0213 90.0374 47.444V47.378L88.8714 54H87.3314L89.4434 41.988H90.9834L90.6094 44.056C91.1227 43.3227 91.7754 42.758 92.5674 42.362C93.3594 41.966 94.2174 41.768 95.1414 41.768ZM105.257 54.176C104.04 54.176 103.05 53.8973 102.287 53.34C101.525 52.768 101.143 51.9907 101.143 51.008C101.143 50.832 101.151 50.7 101.165 50.612H102.661C102.603 51.316 102.808 51.8807 103.277 52.306C103.747 52.7313 104.436 52.944 105.345 52.944C106.269 52.944 107.01 52.7533 107.567 52.372C108.125 51.976 108.403 51.4553 108.403 50.81C108.403 50.4287 108.286 50.106 108.051 49.842C107.817 49.578 107.523 49.3653 107.171 49.204C106.834 49.028 106.357 48.83 105.741 48.61C104.979 48.3313 104.363 48.0747 103.893 47.84C103.439 47.5907 103.043 47.2533 102.705 46.828C102.383 46.388 102.221 45.838 102.221 45.178C102.221 44.518 102.412 43.9313 102.793 43.418C103.175 42.9047 103.695 42.5087 104.355 42.23C105.03 41.9513 105.793 41.812 106.643 41.812C107.831 41.812 108.799 42.1053 109.547 42.692C110.31 43.2787 110.691 44.056 110.691 45.024C110.691 45.2293 110.684 45.3833 110.669 45.486H109.217C109.232 45.4273 109.239 45.332 109.239 45.2C109.239 44.5547 108.983 44.034 108.469 43.638C107.971 43.242 107.325 43.044 106.533 43.044C105.741 43.044 105.081 43.2347 104.553 43.616C104.04 43.9827 103.783 44.4813 103.783 45.112C103.783 45.5373 103.908 45.8967 104.157 46.19C104.407 46.4687 104.715 46.696 105.081 46.872C105.448 47.048 105.939 47.2533 106.555 47.488C107.289 47.7667 107.875 48.0233 108.315 48.258C108.77 48.4927 109.151 48.8153 109.459 49.226C109.767 49.6367 109.921 50.15 109.921 50.766C109.921 51.8073 109.489 52.636 108.623 53.252C107.758 53.868 106.636 54.176 105.257 54.176ZM115.02 50.744C114.976 51.008 114.954 51.2353 114.954 51.426C114.954 51.8953 115.079 52.2253 115.328 52.416C115.592 52.592 116.017 52.68 116.604 52.68H118.012L117.77 54H116.12C115.211 54 114.529 53.824 114.074 53.472C113.619 53.12 113.392 52.5407 113.392 51.734C113.392 51.4113 113.421 51.0813 113.48 50.744L114.8 43.286H113.128L113.37 41.988H115.042L115.57 38.974H117.11L116.582 41.988H119.904L119.662 43.286H116.34L115.02 50.744ZM123.61 39.722C123.331 39.722 123.104 39.6413 122.928 39.48C122.752 39.304 122.664 39.0767 122.664 38.798C122.664 38.4167 122.796 38.1013 123.06 37.852C123.324 37.588 123.639 37.456 124.006 37.456C124.285 37.456 124.505 37.5367 124.666 37.698C124.842 37.8593 124.93 38.072 124.93 38.336C124.93 38.7173 124.798 39.0473 124.534 39.326C124.27 39.59 123.962 39.722 123.61 39.722ZM123.962 41.988L121.85 54H120.31L122.422 41.988H123.962ZM127.889 50.744C127.845 51.008 127.823 51.2353 127.823 51.426C127.823 51.8953 127.948 52.2253 128.197 52.416C128.461 52.592 128.887 52.68 129.473 52.68H130.881L130.639 54H128.989C128.08 54 127.398 53.824 126.943 53.472C126.489 53.12 126.261 52.5407 126.261 51.734C126.261 51.4113 126.291 51.0813 126.349 50.744L127.669 43.286H125.997L126.239 41.988H127.911L128.439 38.974H129.979L129.451 41.988H132.773L132.531 43.286H129.209L127.889 50.744ZM145.697 41.988L143.585 54H142.045L142.419 51.888C141.92 52.636 141.275 53.208 140.483 53.604C139.691 54 138.84 54.198 137.931 54.198C136.699 54.198 135.709 53.868 134.961 53.208C134.213 52.5333 133.839 51.558 133.839 50.282C133.839 49.8127 133.876 49.3873 133.949 49.006L135.181 41.988H136.699L135.489 48.83C135.43 49.1673 135.401 49.5193 135.401 49.886C135.401 50.854 135.665 51.5947 136.193 52.108C136.736 52.6067 137.484 52.856 138.437 52.856C139.552 52.856 140.512 52.5187 141.319 51.844C142.126 51.1547 142.668 50.15 142.947 48.83L144.157 41.988H145.697ZM149.653 50.744C149.609 51.008 149.587 51.2353 149.587 51.426C149.587 51.8953 149.712 52.2253 149.961 52.416C150.225 52.592 150.65 52.68 151.237 52.68H152.645L152.403 54H150.753C149.844 54 149.162 53.824 148.707 53.472C148.252 53.12 148.025 52.5407 148.025 51.734C148.025 51.4113 148.054 51.0813 148.113 50.744L149.433 43.286H147.761L148.003 41.988H149.675L150.203 38.974H151.743L151.215 41.988H154.537L154.295 43.286H150.973L149.653 50.744ZM162.291 41.812C163.303 41.812 164.168 42.01 164.887 42.406C165.605 42.7873 166.148 43.3153 166.515 43.99C166.896 44.6647 167.087 45.4347 167.087 46.3C167.087 46.696 167.057 47.048 166.999 47.356C166.911 47.796 166.823 48.192 166.735 48.544H156.769C156.725 48.8227 156.703 49.0867 156.703 49.336C156.703 50.4653 157.04 51.338 157.715 51.954C158.404 52.57 159.277 52.878 160.333 52.878C161.345 52.878 162.232 52.636 162.995 52.152C163.757 51.668 164.315 51.0153 164.667 50.194H166.317C165.818 51.3673 165.019 52.328 163.919 53.076C162.833 53.8093 161.565 54.176 160.113 54.176C158.617 54.176 157.414 53.7507 156.505 52.9C155.61 52.0347 155.163 50.8613 155.163 49.38C155.163 48.94 155.207 48.478 155.295 47.994C155.515 46.7473 155.955 45.6547 156.615 44.716C157.289 43.7773 158.118 43.0587 159.101 42.56C160.083 42.0613 161.147 41.812 162.291 41.812ZM165.415 47.4C165.488 46.9893 165.525 46.6447 165.525 46.366C165.525 45.3247 165.195 44.5253 164.535 43.968C163.875 43.4107 163.031 43.132 162.005 43.132C161.257 43.132 160.538 43.2933 159.849 43.616C159.159 43.9387 158.558 44.4227 158.045 45.068C157.531 45.7133 157.179 46.4907 156.989 47.4H165.415Z" fill="black"/>
<path fill-rule="evenodd" clip-rule="evenodd" d="M18.6768 7.25057L18.2904 7.12176L18.2903 7.12173C17.9039 6.99294 17.5175 6.86415 17.2599 6.99294L14.1686 6.09133L17.1311 4.80327C17.904 4.41685 18.6768 4.15923 19.4496 3.90162L19.836 3.7728L20.2224 3.90162L21.3817 4.28806C25.1171 5.3185 28.9812 5.06089 32.8454 3.64403C33.0386 3.57963 33.2318 3.48301 33.425 3.3864C33.6182 3.28979 33.8115 3.19318 34.0047 3.12877L34.3911 3H34.7775C35.6791 3.12881 36.452 3.38642 37.2248 3.64403L39.9297 4.54564L35.9368 6.47773C32.7166 7.76578 29.4965 8.53863 26.1475 8.53863C22.9274 8.53863 20.3512 7.8946 18.6768 7.25057ZM7.72824 15.8807C8.34949 15.57 9.054 15.3426 9.70791 15.1316L9.708 15.1315C9.86752 15.08 10.024 15.0295 10.1756 14.979C13.6533 14.0774 17.3887 14.2062 21.1241 15.623C23.5714 16.5247 26.0187 16.9111 28.7236 16.9111C34.1334 16.9111 39.5432 14.979 44.5667 11.2436L46.4987 9.69796L47.1428 9.18275L45.9835 8.28109C45.5971 7.89467 45.0819 7.50827 44.5667 7.25066L43.7938 6.73545L43.1498 7.25066C43.021 7.31506 42.9244 7.41167 42.8278 7.50827C42.7312 7.60487 42.6346 7.70147 42.5058 7.76588C35.6791 12.9181 28.8524 14.335 22.4121 11.8877C17.7751 10.2132 13.1381 9.82678 8.50108 11.2436C8.11467 11.3724 7.72825 11.5012 7.21303 11.63L6.95544 11.7589L6.569 12.1453C6.569 12.2249 6.5198 12.2553 6.45181 12.2973C6.4098 12.3233 6.36061 12.3537 6.31141 12.4029C6.0538 12.7893 5.76398 13.1435 5.47416 13.4977C5.18434 13.852 4.89453 14.2062 4.63691 14.5926L2.18962 18.328L6.1826 16.2671C6.69278 16.2671 7.12213 16.1054 7.47064 15.9742C7.56207 15.9398 7.64794 15.9074 7.72824 15.8807ZM13.0094 23.3513C9.40282 24.3817 6.0539 26.3138 3.09137 29.4052C2.82729 29.5812 2.62336 29.8174 2.43848 30.0316L2.43846 30.0316C2.35282 30.1308 2.27126 30.2252 2.18971 30.3068L0 32.6253L0.128813 29.4052C0.195514 29.005 0.227679 28.5702 0.261075 28.1188C0.292171 27.6985 0.324335 27.2638 0.38644 26.8291V26.4426L0.644028 26.185L1.28806 25.541L3.99298 23.3513C6.5691 21.6768 9.14522 20.3888 11.8501 19.6159C16.1007 18.4567 20.7377 18.7143 25.2459 20.3888C34.7775 23.9953 43.1499 18.7143 48.5597 13.5621L49.075 13.0468L49.9766 12.1452L50.7495 13.1757C50.895 13.3697 51.0222 13.5637 51.1449 13.7508C51.3481 14.0606 51.539 14.3516 51.7799 14.5925L52.2951 15.3653L51.6511 15.8806L49.9766 17.555C45.5972 21.2904 35.5504 28.2459 23.9579 23.9953C20.2225 22.5785 16.4871 22.4497 13.0094 23.3513ZM15.5856 31.7235C19.0634 30.8219 22.7987 30.9507 26.5341 32.3675C30.6559 33.9132 41.2179 36.1029 53.0681 25.4121L55.0001 23.48L55.129 23.3512L55.6442 22.8359L55.3865 22.1919C55.2577 21.6767 55.0002 21.0328 54.7426 20.3888L54.7425 20.3887L54.7425 20.3886L54.0985 18.5853L52.8104 19.8734C52.7272 20.0397 52.5904 20.1524 52.4344 20.2807C52.3489 20.3511 52.2577 20.4262 52.1664 20.5174C46.499 26.3137 37.7402 32.2387 27.6933 28.6322C23.1851 26.9577 18.5481 26.7001 14.2976 27.8593C10.1758 29.0186 6.56921 31.2083 3.22026 34.2996V34.1708L1.28818 36.2317C1.28818 36.3113 1.23898 36.3417 1.17099 36.3838C1.12897 36.4097 1.07978 36.4401 1.03059 36.4893L0.644147 36.8757L0.772961 37.391C0.837363 37.713 0.933966 38.035 1.03057 38.357C1.12717 38.679 1.22377 39.001 1.28818 39.323L2.06102 41.3839L3.34907 39.7095C3.41348 39.5807 3.51008 39.4841 3.60668 39.3875C3.70328 39.2909 3.79988 39.1943 3.86429 39.0655L4.08815 38.8628C6.77433 36.4298 10.4488 33.1017 15.5856 31.7235ZM33.2321 45.6347C28.7239 43.9602 24.0869 43.7027 19.8363 44.8619C16.8738 45.6347 14.0401 47.1804 11.464 49.1125L9.66065 50.6582L9.14543 51.1734L10.3047 52.2038C10.3843 52.2038 10.4147 52.253 10.4567 52.321C10.4827 52.363 10.5131 52.4122 10.5623 52.4614C10.7509 52.65 10.9395 52.7696 11.1786 52.9211L11.1786 52.9212C11.2661 52.9767 11.3604 53.0364 11.464 53.1055L12.2368 53.6207L13.0096 52.9766C13.1384 52.8478 13.396 52.5902 13.6536 52.4614C15.9721 50.5293 18.5482 49.2413 21.2532 48.5973C24.7309 47.6956 28.4663 47.8244 32.2016 49.2413C35.293 50.4005 41.6045 51.8174 49.204 48.5973L49.4616 48.4684L49.848 48.082C49.848 48.0024 49.8972 47.972 49.9652 47.93C50.0072 47.904 50.0564 47.8736 50.1056 47.8244C50.7497 47.0516 51.3937 46.2788 51.9089 45.3771L54.485 41.3841L50.3632 43.7026C44.3094 47.0516 38.7707 47.6956 33.2321 45.6347ZM36.9675 54.3935C36.7743 54.3291 36.6133 54.2647 36.4523 54.2003C36.2913 54.1359 36.1303 54.0715 35.937 54.0071C31.4289 52.3326 26.7918 52.075 22.5412 53.2343L22.5409 53.2344C21.6394 53.492 20.7379 53.7495 19.8363 54.1359L16.745 55.5528L15.9722 55.9392L18.5483 56.8408L20.8668 57.6137L21.2532 57.7425L21.6396 57.6137C21.7684 57.5707 21.8973 57.5135 22.0261 57.4562C22.2837 57.3417 22.5413 57.2272 22.7989 57.2272C23.0565 57.2272 23.3141 57.0984 23.5717 56.9696C26.663 56.1968 30.012 56.1968 33.6185 57.356C33.8117 57.4204 33.9727 57.4848 34.1336 57.5492L34.1338 57.5493C34.2948 57.6137 34.4558 57.6781 34.649 57.7425L35.293 58.0001L35.6794 57.8712C35.8165 57.8321 35.9566 57.7929 36.0982 57.7533L36.0985 57.7532C36.8886 57.5323 37.7291 57.2973 38.3843 56.9696L41.9909 55.6816L38.2555 54.7799C38.0623 54.7155 37.8369 54.6511 37.6115 54.5867C37.3861 54.5223 37.1607 54.4579 36.9675 54.3935ZM54.7424 29.6627L56.6745 27.7306L56.5457 30.6932C56.5457 31.0796 56.5135 31.4982 56.4813 31.9168C56.4491 32.3355 56.4169 32.7541 56.4169 33.1405V33.5269L56.0305 33.9133C55.9017 34.0421 55.7729 34.1387 55.6441 34.2354C55.5153 34.332 55.3865 34.4286 55.2577 34.5574C50.8783 38.2927 44.9532 41.6417 39.0282 42.2857C35.6792 42.6721 32.3303 42.2857 29.1101 41.1264C25.3748 39.7096 21.6394 39.5807 18.1616 40.4824C14.2975 41.5128 10.9485 43.5737 7.85719 46.9227L7.34197 47.4379L6.44032 48.5972L5.66751 47.4379C5.4099 46.9227 5.15228 46.5363 4.76586 46.0211L4.25064 45.2482L4.76586 44.6042L6.44032 42.8009C9.66046 39.7096 13.267 37.6487 17.26 36.4894C21.5106 35.3302 26.1476 35.5878 30.6558 37.2622C40.1874 40.8688 48.6886 35.459 53.9696 30.4356L54.7424 29.6627Z" fill="#201B21"/>
<line x1="198.144" y1="2.18557e-08" x2="198.144" y2="58" stroke="#777776"/>
<path d="M228.709 9.545V10.655H224.164V14.18H227.854V15.29H224.164V20H222.799V9.545H228.709ZM231.723 9.545V20H230.358V9.545H231.723ZM239.719 20L235.414 15.23V20H234.049V9.545H235.414V14.39L239.734 9.545H241.459L236.719 14.78L241.504 20H239.719ZM242.519 14.765C242.519 13.745 242.749 12.83 243.209 12.02C243.669 11.2 244.294 10.56 245.084 10.1C245.884 9.64 246.769 9.41 247.739 9.41C248.879 9.41 249.874 9.685 250.724 10.235C251.574 10.785 252.194 11.565 252.584 12.575H250.949C250.659 11.945 250.239 11.46 249.689 11.12C249.149 10.78 248.499 10.61 247.739 10.61C247.009 10.61 246.354 10.78 245.774 11.12C245.194 11.46 244.739 11.945 244.409 12.575C244.079 13.195 243.914 13.925 243.914 14.765C243.914 15.595 244.079 16.325 244.409 16.955C244.739 17.575 245.194 18.055 245.774 18.395C246.354 18.735 247.009 18.905 247.739 18.905C248.499 18.905 249.149 18.74 249.689 18.41C250.239 18.07 250.659 17.585 250.949 16.955H252.584C252.194 17.955 251.574 18.73 250.724 19.28C249.874 19.82 248.879 20.09 247.739 20.09C246.769 20.09 245.884 19.865 245.084 19.415C244.294 18.955 243.669 18.32 243.209 17.51C242.749 16.7 242.519 15.785 242.519 14.765ZM261.935 9.545L258.53 16.055V20H257.165V16.055L253.745 9.545H255.26L257.84 14.84L260.42 9.545H261.935ZM268.64 9.545V17.27C268.64 18.13 268.375 18.82 267.845 19.34C267.315 19.85 266.615 20.105 265.745 20.105C264.865 20.105 264.16 19.845 263.63 19.325C263.1 18.795 262.835 18.075 262.835 17.165H264.2C264.21 17.675 264.34 18.09 264.59 18.41C264.85 18.73 265.235 18.89 265.745 18.89C266.255 18.89 266.635 18.74 266.885 18.44C267.135 18.13 267.26 17.74 267.26 17.27V9.545H268.64ZM279.549 20H278.184L272.694 11.675V20H271.329V9.53H272.694L278.184 17.84V9.53H279.549V20ZM288.056 17.675H283.496L282.656 20H281.216L284.996 9.605H286.571L290.336 20H288.896L288.056 17.675ZM287.666 16.565L285.776 11.285L283.886 16.565H287.666ZM224.164 26.545V37H222.799V26.545H224.164ZM234.71 37H233.345L227.855 28.675V37H226.49V26.53H227.855L233.345 34.84V26.53H234.71V37ZM240.352 37.105C239.662 37.105 239.042 36.985 238.492 36.745C237.952 36.495 237.527 36.155 237.217 35.725C236.907 35.285 236.747 34.78 236.737 34.21H238.192C238.242 34.7 238.442 35.115 238.792 35.455C239.152 35.785 239.672 35.95 240.352 35.95C241.002 35.95 241.512 35.79 241.882 35.47C242.262 35.14 242.452 34.72 242.452 34.21C242.452 33.81 242.342 33.485 242.122 33.235C241.902 32.985 241.627 32.795 241.297 32.665C240.967 32.535 240.522 32.395 239.962 32.245C239.272 32.065 238.717 31.885 238.297 31.705C237.887 31.525 237.532 31.245 237.232 30.865C236.942 30.475 236.797 29.955 236.797 29.305C236.797 28.735 236.942 28.23 237.232 27.79C237.522 27.35 237.927 27.01 238.447 26.77C238.977 26.53 239.582 26.41 240.262 26.41C241.242 26.41 242.042 26.655 242.662 27.145C243.292 27.635 243.647 28.285 243.727 29.095H242.227C242.177 28.695 241.967 28.345 241.597 28.045C241.227 27.735 240.737 27.58 240.127 27.58C239.557 27.58 239.092 27.73 238.732 28.03C238.372 28.32 238.192 28.73 238.192 29.26C238.192 29.64 238.297 29.95 238.507 30.19C238.727 30.43 238.992 30.615 239.302 30.745C239.622 30.865 240.067 31.005 240.637 31.165C241.327 31.355 241.882 31.545 242.302 31.735C242.722 31.915 243.082 32.2 243.382 32.59C243.682 32.97 243.832 33.49 243.832 34.15C243.832 34.66 243.697 35.14 243.427 35.59C243.157 36.04 242.757 36.405 242.227 36.685C241.697 36.965 241.072 37.105 240.352 37.105ZM252.276 26.545V27.655H249.426V37H248.061V27.655H245.196V26.545H252.276ZM261.276 26.545L257.871 33.055V37H256.506V33.055L253.086 26.545H254.601L257.181 31.84L259.761 26.545H261.276ZM269.151 26.545V27.655H266.301V37H264.936V27.655H262.071V26.545H269.151ZM272.166 26.545V33.16C272.166 34.09 272.391 34.78 272.841 35.23C273.301 35.68 273.936 35.905 274.746 35.905C275.546 35.905 276.171 35.68 276.621 35.23C277.081 34.78 277.311 34.09 277.311 33.16V26.545H278.676V33.145C278.676 34.015 278.501 34.75 278.151 35.35C277.801 35.94 277.326 36.38 276.726 36.67C276.136 36.96 275.471 37.105 274.731 37.105C273.991 37.105 273.321 36.96 272.721 36.67C272.131 36.38 271.661 35.94 271.311 35.35C270.971 34.75 270.801 34.015 270.801 33.145V26.545H272.166ZM280.443 31.765C280.443 30.745 280.673 29.83 281.133 29.02C281.593 28.2 282.218 27.56 283.008 27.1C283.808 26.64 284.693 26.41 285.663 26.41C286.803 26.41 287.798 26.685 288.648 27.235C289.498 27.785 290.118 28.565 290.508 29.575H288.873C288.583 28.945 288.163 28.46 287.613 28.12C287.073 27.78 286.423 27.61 285.663 27.61C284.933 27.61 284.278 27.78 283.698 28.12C283.118 28.46 282.663 28.945 282.333 29.575C282.003 30.195 281.838 30.925 281.838 31.765C281.838 32.595 282.003 33.325 282.333 33.955C282.663 34.575 283.118 35.055 283.698 35.395C284.278 35.735 284.933 35.905 285.663 35.905C286.423 35.905 287.073 35.74 287.613 35.41C288.163 35.07 288.583 34.585 288.873 33.955H290.508C290.118 34.955 289.498 35.73 288.648 36.28C287.798 36.82 286.803 37.09 285.663 37.09C284.693 37.09 283.808 36.865 283.008 36.415C282.218 35.955 281.593 35.32 281.133 34.51C280.673 33.7 280.443 32.785 280.443 31.765ZM297.805 26.545V34.27C297.805 35.13 297.54 35.82 297.01 36.34C296.48 36.85 295.78 37.105 294.91 37.105C294.03 37.105 293.325 36.845 292.795 36.325C292.265 35.795 292 35.075 292 34.165H293.365C293.375 34.675 293.505 35.09 293.755 35.41C294.015 35.73 294.4 35.89 294.91 35.89C295.42 35.89 295.8 35.74 296.05 35.44C296.3 35.13 296.425 34.74 296.425 34.27V26.545H297.805ZM306.674 34.675H302.114L301.274 37H299.834L303.614 26.605H305.189L308.954 37H307.514L306.674 34.675ZM306.284 33.565L304.394 28.285L302.504 33.565H306.284ZM224.164 44.655V48.15H227.974V49.275H224.164V52.875H228.424V54H222.799V43.53H228.424V44.655H224.164ZM233.744 43.545C234.884 43.545 235.869 43.76 236.699 44.19C237.539 44.61 238.179 45.215 238.619 46.005C239.069 46.795 239.294 47.725 239.294 48.795C239.294 49.865 239.069 50.795 238.619 51.585C238.179 52.365 237.539 52.965 236.699 53.385C235.869 53.795 234.884 54 233.744 54H230.489V43.545H233.744ZM233.744 52.875C235.094 52.875 236.124 52.52 236.834 51.81C237.544 51.09 237.899 50.085 237.899 48.795C237.899 47.495 237.539 46.48 236.819 45.75C236.109 45.02 235.084 44.655 233.744 44.655H231.854V52.875H233.744ZM242.43 43.545V50.16C242.43 51.09 242.655 51.78 243.105 52.23C243.565 52.68 244.2 52.905 245.01 52.905C245.81 52.905 246.435 52.68 246.885 52.23C247.345 51.78 247.575 51.09 247.575 50.16V43.545H248.94V50.145C248.94 51.015 248.765 51.75 248.415 52.35C248.065 52.94 247.59 53.38 246.99 53.67C246.4 53.96 245.735 54.105 244.995 54.105C244.255 54.105 243.585 53.96 242.985 53.67C242.395 53.38 241.925 52.94 241.575 52.35C241.235 51.75 241.065 51.015 241.065 50.145V43.545H242.43ZM256.887 54L252.582 49.23V54H251.217V43.545H252.582V48.39L256.902 43.545H258.627L253.887 48.78L258.672 54H256.887ZM266.377 51.675H261.817L260.977 54H259.537L263.317 43.605H264.892L268.657 54H267.217L266.377 51.675ZM265.987 50.565L264.097 45.285L262.207 50.565H265.987ZM269.794 48.765C269.794 47.745 270.024 46.83 270.484 46.02C270.944 45.2 271.569 44.56 272.359 44.1C273.159 43.64 274.044 43.41 275.014 43.41C276.154 43.41 277.149 43.685 277.999 44.235C278.849 44.785 279.469 45.565 279.859 46.575H278.224C277.934 45.945 277.514 45.46 276.964 45.12C276.424 44.78 275.774 44.61 275.014 44.61C274.284 44.61 273.629 44.78 273.049 45.12C272.469 45.46 272.014 45.945 271.684 46.575C271.354 47.195 271.189 47.925 271.189 48.765C271.189 49.595 271.354 50.325 271.684 50.955C272.014 51.575 272.469 52.055 273.049 52.395C273.629 52.735 274.284 52.905 275.014 52.905C275.774 52.905 276.424 52.74 276.964 52.41C277.514 52.07 277.934 51.585 278.224 50.955H279.859C279.469 51.955 278.849 52.73 277.999 53.28C277.149 53.82 276.154 54.09 275.014 54.09C274.044 54.09 273.159 53.865 272.359 53.415C271.569 52.955 270.944 52.32 270.484 51.51C270.024 50.7 269.794 49.785 269.794 48.765ZM289.211 43.545L285.806 50.055V54H284.441V50.055L281.021 43.545H282.536L285.116 48.84L287.696 43.545H289.211ZM295.916 43.545V51.27C295.916 52.13 295.651 52.82 295.121 53.34C294.591 53.85 293.891 54.105 293.021 54.105C292.141 54.105 291.436 53.845 290.906 53.325C290.376 52.795 290.111 52.075 290.111 51.165H291.476C291.486 51.675 291.616 52.09 291.866 52.41C292.126 52.73 292.511 52.89 293.021 52.89C293.531 52.89 293.911 52.74 294.161 52.44C294.411 52.13 294.536 51.74 294.536 51.27V43.545H295.916ZM306.825 54H305.46L299.97 45.675V54H298.605V43.53H299.97L305.46 51.84V43.53H306.825V54ZM315.332 51.675H310.772L309.932 54H308.492L312.272 43.605H313.847L317.612 54H316.172L315.332 51.675ZM314.942 50.565L313.052 45.285L311.162 50.565H314.942Z" fill="#777776"/>
</svg>
