<svg width="63" height="42" viewBox="0 0 63 42" fill="none" xmlns="http://www.w3.org/2000/svg">
<g clip-path="url(#clip0_286_755)">
<path d="M0 26.7931C0.14335 25.6371 0.217337 24.4687 0.442381 23.3296C1.05277 20.236 1.71403 17.1532 2.38146 14.072C3.04888 10.9907 3.75484 7.91563 4.43152 4.83592C5.05733 1.98896 6.90238 0.315003 9.7478 0.0375515C12.4375 -0.224486 15.249 1.9643 15.6313 4.64325C15.7176 5.24902 15.7515 5.86866 15.7423 6.48059C15.7284 7.32836 15.1674 7.87402 14.4074 7.85552C13.6691 7.83856 13.1836 7.31295 13.1389 6.47751C13.1173 6.08908 13.125 5.69756 13.0757 5.31221C12.8907 3.85713 11.7593 2.7612 10.3597 2.66255C8.81834 2.55311 7.52202 3.38701 7.149 4.85904C6.66654 6.76421 6.26578 8.68942 5.84344 10.61C4.94172 14.7101 4.01688 18.8056 3.17065 22.9165C2.87625 24.3516 2.78685 25.8282 2.66045 27.2864C4.02921 20.8587 7.71315 16.6076 14.3766 15.9093C21.2728 15.1864 25.7814 18.7486 28.3355 25.0668C30.4349 23.1416 32.5728 23.1416 34.7339 25.1207C35.9207 21.5647 38.0787 18.8888 41.368 17.1856C43.7695 15.9417 46.3298 15.5271 49.0026 15.8847C54.7042 16.6476 59.3978 21.1362 60.3488 27.2771C60.2717 26.3908 60.2702 25.4906 60.1022 24.6228C59.4949 21.4661 58.8536 18.317 58.1831 15.1725C57.4772 11.8678 56.7219 8.57535 55.9882 5.27676C55.663 3.81243 54.6811 2.82748 53.3956 2.67026C52.0222 2.50225 50.7413 3.13268 50.2218 4.37813C49.9783 4.96232 50.0045 5.65286 49.8688 6.28792C49.781 6.69485 49.7024 7.14185 49.4727 7.46863C49.1814 7.88326 48.6681 7.948 48.1841 7.80003C47.6677 7.64281 47.3394 7.259 47.2932 6.72876C47.1159 4.70799 47.5675 2.87064 49.1521 1.49725C52.5925 -1.48843 57.5419 0.204022 58.55 4.71261C59.8771 10.6485 61.2197 16.5798 62.422 22.542C62.8289 24.5566 62.8582 26.6529 62.9954 28.7153C63.0586 29.6802 62.4775 30.1719 61.4494 30.2089C60.6715 30.2356 60.2111 30.6379 60.0683 31.4158C59.0093 37.1698 53.9489 41.6383 48.1224 41.9651C41.0798 42.3597 35.1146 37.4272 34.2822 30.4139C34.1343 29.1684 33.7581 28.1126 33.0013 27.1708C32.0487 25.987 30.9728 25.9746 30.0372 27.1554C29.3343 28.0432 28.8457 29.002 28.7625 30.2073C28.3694 35.9197 23.5202 40.9632 17.8617 41.8418C10.4306 42.9963 3.76563 37.7756 2.83617 30.6497C2.79147 30.3121 2.66353 30.1842 2.32905 30.2058C2.02231 30.2258 1.71403 30.2166 1.4073 30.2042C0.692088 30.175 0.237375 29.7989 0.0030828 29.1345V26.7962L0 26.7931ZM26.2408 28.8586C26.2161 23.0568 21.5272 18.3863 15.7408 18.3987C9.94356 18.4095 5.2685 23.0892 5.26541 28.8833C5.26233 34.6959 9.99751 39.4141 15.7962 39.374C21.6042 39.3339 26.267 34.6404 26.2408 28.8586ZM47.25 39.374C53.0379 39.3833 57.7253 34.7113 57.7469 28.911C57.77 23.1292 53.1058 18.4357 47.2993 18.3987C41.5006 18.3617 36.7654 23.0814 36.7716 28.8925C36.7777 34.6866 41.4543 39.3663 47.25 39.374Z" fill="#3F3A54"/>
</g>
<defs>
<clipPath id="clip0_286_755">
<rect width="63" height="41.9985" fill="white"/>
</clipPath>
</defs>
</svg>
