<svg width="60" height="64" viewBox="0 0 60 64" fill="none" xmlns="http://www.w3.org/2000/svg">
<g clip-path="url(#clip0_186_4993)">
<path d="M30.4043 -0.000112829C30.7794 0.0940603 31.1561 0.180253 31.528 0.285599C34.5894 1.16668 36.7442 4.08605 36.6804 7.2608C36.6165 10.4419 34.3643 13.2592 31.2694 14.0269C31.0507 14.0812 30.8336 14.1386 30.5862 14.2009V16.2839C31.1688 15.888 31.702 15.4762 32.2798 15.1442C33.3157 14.5488 34.4489 14.2823 35.6445 14.2839C38.5654 14.2855 41.4864 14.2839 44.4074 14.2839C44.5271 14.2839 44.6468 14.3062 44.7601 14.3174C45.2485 17.7523 43.0985 21.2846 39.4242 22.196C38.7538 22.362 38.0419 22.4179 37.3476 22.4275C35.3316 22.4578 33.3157 22.4386 31.2997 22.4386C31.0763 22.4386 30.8544 22.4386 30.5655 22.4386V24.4147H28.5527V22.477C28.2718 22.4626 28.0563 22.4402 27.8393 22.4402C25.7611 22.437 23.6845 22.4514 21.6063 22.4354C18.0197 22.4083 15.2169 20.2168 14.4284 16.8345C14.3454 16.4754 14.2895 16.1067 14.2671 15.7396C14.24 15.2911 14.2608 14.8393 14.2608 14.3525C14.3837 14.3286 14.497 14.2871 14.6119 14.2871C17.6159 14.2871 20.6182 14.2807 23.6222 14.2967C25.362 14.3062 26.8608 14.9622 28.1681 16.0907C28.2543 16.1658 28.35 16.2296 28.5001 16.3445V14.2392C27.9255 14.0524 27.3269 13.9056 26.7682 13.6662C23.8824 12.4292 22.0803 9.40603 22.4427 6.45953C22.8545 3.11558 25.1465 0.671869 28.3963 0.105233C28.4937 0.0876757 28.5831 0.0350026 28.6772 -0.00170898C29.2535 -0.00170898 29.8297 -0.00170898 30.4059 -0.00170898L30.4043 -0.000112829ZM29.5471 2.05893C26.7603 2.05254 24.4873 4.30312 24.4618 7.09799C24.4347 9.89924 26.7283 12.2185 29.5328 12.2232C32.3117 12.228 34.5926 9.96469 34.6181 7.17461C34.6437 4.36378 32.3676 2.06691 29.5487 2.05893H29.5471ZM28.3245 20.3413C28.1697 18.7435 26.6789 17.0021 24.9454 16.5808C24.0612 16.3653 23.121 16.3333 22.2032 16.3158C20.2974 16.2775 18.39 16.3046 16.4794 16.3046C16.6342 18.2392 18.6103 20.204 20.7555 20.3126C23.2727 20.4403 25.801 20.3429 28.3261 20.3429L28.3245 20.3413ZM42.6101 16.3046C41.1464 16.3046 39.729 16.2934 38.3132 16.3078C37.164 16.3206 36.0068 16.2839 34.8687 16.41C32.8097 16.6382 31.0124 18.3972 30.7411 20.3301C33.3045 20.3301 35.8743 20.4514 38.4266 20.2934C40.5494 20.1609 42.385 18.2679 42.6101 16.3062V16.3046Z" fill="#414042"/>
<path d="M16.3353 -0.000244141V1.9726L14.2778 2.15457L14.2906 2.17053L14.2363 -0.000244141H16.3353Z" fill="#414042"/>
<path d="M46.6109 20.1674C46.7929 19.5082 46.9589 18.9001 47.1456 18.2201C48.9812 18.758 50.7657 19.2879 52.1687 20.6223C52.7274 21.1554 53.0019 21.8338 52.994 22.6159C52.9908 22.9016 52.994 23.1873 52.994 23.3358C54.0554 23.8306 55.1152 24.161 55.9883 24.7612C58.4337 26.4419 59.4823 28.8665 58.9763 31.7683C58.464 34.71 56.6523 36.6605 53.7282 37.4378C53.1153 37.6006 52.9381 37.8528 52.8822 38.453C52.0889 46.9557 47.8974 53.2541 40.4657 57.4057C39.9246 57.709 39.7107 58.0059 39.7315 58.63C39.781 60.1272 39.7475 61.626 39.7475 63.1647H37.7076V58.6843C35.0196 59.6244 32.3349 60.1368 29.5624 60.1352C26.7851 60.1352 24.0908 59.6451 21.406 58.6795V63.1647H19.3374C19.3374 62.1351 19.339 61.112 19.3374 60.0889C19.3358 59.369 19.5625 58.5214 19.2576 57.966C18.9607 57.4249 18.1211 57.1807 17.5178 56.8088C11.5657 53.128 7.89777 47.8511 6.50273 41.002C6.31119 40.0603 6.25373 39.0883 6.16594 38.1274C6.13242 37.765 6.00153 37.607 5.63282 37.5192C2.00636 36.6541 -0.221877 33.647 0.0175465 29.9678C0.204297 27.1075 2.48201 24.3956 5.2673 23.7221C5.52428 23.6598 5.78126 23.5976 6.04623 23.5321C6.06219 23.4316 6.09571 23.3502 6.08613 23.2735C5.88821 21.5034 6.79004 20.359 8.27286 19.6343C9.42529 19.0709 10.64 18.6367 11.9089 18.1116C12.1228 18.8873 12.292 19.5082 12.4612 20.1227C11.5434 20.4691 10.6719 20.7676 9.82752 21.1299C9.379 21.3214 8.95283 21.5896 8.56336 21.8865C8.0095 22.3079 7.98236 22.6989 8.5921 23.0437C9.51308 23.5656 10.4803 24.0541 11.4875 24.3717C14.7357 25.4012 18.0972 25.8545 21.4795 26.153C25.5624 26.5137 29.6534 26.6207 33.7459 26.41C38.3492 26.1738 42.935 25.7699 47.3803 24.4387C48.2023 24.1929 49.0211 23.8881 49.7809 23.4938C50.2198 23.2672 50.5391 22.8075 50.9126 22.4531C50.5566 22.1083 50.2502 21.671 49.832 21.4412C49.1169 21.0501 48.3332 20.7835 47.5718 20.4771C47.2877 20.3637 46.9892 20.2871 46.6093 20.1658L46.6109 20.1674ZM8.17869 25.331C8.17231 25.3916 8.14677 25.5098 8.14677 25.6263C8.15634 29.5959 8.07175 33.5703 8.20423 37.5368C8.41652 43.915 11.0853 49.1903 15.9887 53.219C21.1618 57.4696 27.157 58.9269 33.7363 57.6675C38.4737 56.7609 42.4434 54.4161 45.6213 50.7801C48.8743 47.0611 50.7099 42.7259 50.8727 37.7842C51.0067 33.7555 50.9269 29.7204 50.9381 25.6885C50.9381 25.5513 50.9142 25.414 50.8982 25.2544C50.1289 25.5688 49.409 25.9152 48.654 26.1642C44.1018 27.6614 39.374 28.0971 34.6302 28.3892C30.5999 28.6366 26.5712 28.5744 22.5457 28.2663C18.9958 27.995 15.4635 27.5848 12.019 26.6494C10.7214 26.2967 9.46838 25.7795 8.17709 25.331H8.17869ZM6.04782 35.5208V25.6566C3.80203 26.0429 2.08138 28.129 2.02072 30.4961C1.96007 32.8776 3.66795 35.0244 6.04782 35.5208ZM53.0163 35.5177C55.3866 35.0787 57.1551 32.8425 57.061 30.4483C56.9684 28.0652 55.1184 25.8721 53.0163 25.6773V35.5177Z" fill="#414042"/>
<path d="M44.841 8.1355C44.8282 8.86015 44.8154 9.58481 44.8026 10.3079L44.8186 10.2919C44.1738 10.2456 43.5305 10.1993 42.8362 10.1498V8.15306C43.5193 8.15306 44.1881 8.15306 44.8569 8.15306L44.8394 8.1355H44.841Z" fill="#414042"/>
<path d="M46.7644 8.20089H48.8793V10.1674H46.9208C46.8729 9.50654 46.8267 8.84574 46.7788 8.18652L46.7644 8.20089Z" fill="#414042"/>
<path d="M16.378 4.11174C16.3365 4.75499 16.2966 5.39824 16.2535 6.08299H14.2057C14.2057 5.40143 14.2057 4.7518 14.2057 4.10376L14.1897 4.12291C14.9239 4.12291 15.6566 4.12611 16.3908 4.1277L16.3764 4.11334L16.378 4.11174Z" fill="#414042"/>
<path d="M14.2748 2.1549C14.2461 2.80933 14.219 3.46535 14.1902 4.12137C14.1902 4.12137 14.2062 4.10221 14.2046 4.10381C13.5709 4.10381 12.9388 4.10381 12.2637 4.10381V2.00806C12.9404 2.06233 13.6124 2.115 14.286 2.16927L14.2732 2.1549H14.2748Z" fill="#414042"/>
<path d="M16.396 4.12605C16.3545 3.46205 16.313 2.79964 16.2683 2.08936H18.2795V4.11009C17.6346 4.11009 17.0073 4.11009 16.38 4.11009L16.3944 4.12605H16.396Z" fill="#414042"/>
<path d="M46.7752 8.18675C46.1287 8.16919 45.4807 8.15323 44.8342 8.13567L44.8518 8.15323C44.8518 7.50359 44.8518 6.85555 44.8518 6.16602H46.8885C46.847 6.84757 46.8039 7.52434 46.7624 8.19952L46.7752 8.18675Z" fill="#414042"/>
<path d="M44.8003 10.308C45.4595 10.2601 46.1187 10.2122 46.8226 10.1611V12.1819H44.8194C44.8194 11.5418 44.8194 10.9145 44.8194 10.2888L44.8019 10.3064L44.8003 10.308Z" fill="#414042"/>
<path d="M29.5558 4.08132C31.2174 4.08771 32.6284 5.51467 32.6044 7.1635C32.5805 8.81392 31.2158 10.1723 29.5637 10.1898C27.9021 10.2074 26.4864 8.80754 26.4832 7.14115C26.48 5.48434 27.8958 4.07494 29.5558 4.08132ZM30.5406 7.1188C30.531 6.54578 30.0761 6.12121 29.4951 6.14515C28.9476 6.1675 28.539 6.60325 28.5486 7.15552C28.5582 7.69981 28.9923 8.13396 29.5318 8.14194C30.0921 8.14992 30.5502 7.68544 30.5406 7.1188Z" fill="#414042"/>
<path d="M21.4663 30.6318H23.3497C23.5094 33.2654 21.1263 35.6533 18.357 35.674C15.586 35.6948 13.1439 33.275 13.3019 30.5967C13.867 30.5967 14.4384 30.5679 15.0034 30.619C15.1264 30.6302 15.2892 30.9095 15.3243 31.0867C15.5813 32.4147 16.59 33.4203 17.8685 33.5863C19.2476 33.7666 20.491 33.1282 21.0641 31.9023C21.2444 31.5177 21.3242 31.0867 21.4663 30.6318Z" fill="#414042"/>
<path d="M35.7207 30.6254H37.6473C38.0798 32.5807 39.0599 33.5511 40.6465 33.623C42.2394 33.6948 43.1253 32.8776 43.8883 30.6238H45.7701C46.0207 33.1345 43.6408 35.5735 40.8715 35.6724C38.099 35.7714 35.6585 33.4075 35.7191 30.627L35.7207 30.6254Z" fill="#414042"/>
<path d="M30.5412 7.11891C30.5508 7.68554 30.0927 8.15003 29.5325 8.14205C28.993 8.13566 28.5588 7.69991 28.5492 7.15562C28.5397 6.60335 28.9483 6.1676 29.4958 6.14525C30.0768 6.12131 30.5333 6.54429 30.5412 7.11891Z" fill="#414042"/>
<path d="M24.5811 45.0197H26.5076C26.9402 46.9749 27.9202 47.9454 29.5068 48.0172C31.0998 48.0891 31.9856 47.2718 32.7486 45.0181H34.6305C34.8811 47.5288 32.5012 49.9677 29.7319 50.0667C26.9593 50.1657 24.5188 47.8018 24.5795 45.0213L24.5811 45.0197Z" fill="#414042"/>
</g>
<defs>
<clipPath id="clip0_186_4993">
<rect width="59.0993" height="63.1631" fill="white"/>
</clipPath>
</defs>
</svg>
