<svg width="53" height="54" viewBox="0 0 53 54" fill="none" xmlns="http://www.w3.org/2000/svg">
<g clip-path="url(#clip0_186_5012)">
<path d="M6.86646e-05 22.6029C1.46502 26.1878 2.9272 29.774 4.39631 33.3574C5.08171 35.0315 5.78096 36.6986 6.47189 38.3699C6.54251 38.5388 6.60067 38.7132 6.64636 38.8337C5.82665 39.0677 5.01802 39.202 4.29108 39.5233C1.94411 40.5604 0.551155 42.3798 0.0969925 44.9123C0.0789909 45.0092 0.0332985 45.102 6.86646e-05 45.1975V46.7525C0.0845337 47.118 0.148228 47.4905 0.258999 47.8491C1.13271 50.6821 3.02274 52.3977 5.93604 52.9778C6.03296 52.9972 6.12573 53.0415 6.21989 53.0748H46.7443C46.8564 53.0402 46.9658 52.9917 47.0807 52.9723C50.3263 52.4171 52.8118 49.6325 52.9558 46.3869C53.1067 43.0112 50.9633 40.0397 47.7315 39.184C47.1209 39.022 46.4812 38.9666 45.8276 38.8559C45.8276 38.7908 45.8152 38.7049 45.829 38.6232C46.0519 37.3341 46.0298 36.0478 45.8304 34.7559C45.7916 34.5025 45.8581 34.2048 45.9578 33.9625C47.2261 30.8665 48.5374 27.7884 49.7808 24.6827C50.4925 22.9048 51.3703 21.2363 52.5985 19.7658C52.9779 19.313 53.0762 18.8325 52.9447 18.2731C52.4185 16.0231 51.9048 13.7689 51.3773 11.5189C51.1737 10.6493 50.5839 10.3973 49.832 10.8625C47.8367 12.0976 45.8498 13.3493 43.8559 14.5872C43.392 14.8752 43.1926 15.2823 43.1082 15.8154C42.9489 16.8359 42.8576 17.8937 42.5072 18.8519C41.6211 21.2792 40.6061 23.658 39.641 26.0562C39.6313 26.0798 39.5843 26.0881 39.6189 26.0701C38.5555 25.6865 37.5391 25.3182 36.491 24.9402C36.4965 24.8405 36.4951 24.7034 36.5131 24.5691C36.8704 22.0144 36.9908 19.4487 36.9382 16.8705C36.9313 16.559 37.0504 16.1934 37.2304 15.9386C38.8144 13.7066 39.5012 11.253 38.9944 8.5474C38.3505 5.10795 36.3331 2.50205 33.7688 0.257544C33.4544 -0.0179999 33.0875 -0.0900013 32.7164 0.135696C32.3315 0.3697 32.2055 0.722784 32.3163 1.16033C32.632 2.40374 32.4284 3.59869 31.7416 4.63856C30.8984 5.9152 30.0344 7.20984 28.9848 8.3134C27.1972 10.1924 26.7445 13.1347 28.7605 15.6603C28.9917 15.9511 29.0264 16.2169 28.9724 16.5617C28.5237 19.3989 28.2606 22.2526 28.388 25.1257C28.4226 25.9011 28.2911 26.4135 27.5379 26.7555C27.056 26.9742 26.6531 27.3647 26.1878 27.697C26.1504 27.5627 26.1297 27.4976 26.1144 27.4312C24.9015 22.2415 23.6927 17.0505 22.4728 11.8636C22.2485 10.9096 22.1281 9.88912 21.6947 9.03203C20.3599 6.38321 18.9032 3.79531 17.4812 1.19079C16.9786 0.271391 16.1146 -0.127387 15.1924 0.0858484C14.237 0.307391 13.6277 1.05787 13.5862 2.11297C13.474 5.03041 13.3688 7.94647 13.2746 10.8639C13.2636 11.1865 13.3079 11.5202 13.3813 11.8359C14.5998 17.0588 15.8279 22.2803 17.0533 27.5032C17.2527 28.352 17.4452 29.2021 17.6432 30.0675C16.9301 30.1728 16.2849 30.2683 15.6133 30.3666C15.5441 30.2101 15.4735 30.0565 15.4084 29.9C13.9157 26.2999 12.4259 22.6985 10.9332 19.0984C10.3904 17.7913 9.49734 17.4188 8.19854 17.9561C6.01496 18.8588 3.84245 19.7866 1.64502 20.6533C0.793468 20.9898 0.182842 21.4717 -0.00408554 22.3966C-0.00408554 22.4658 -0.00408554 22.5351 -0.00408554 22.6043L6.86646e-05 22.6029ZM7.21406 51.3066C4.60262 51.3038 2.50766 49.6713 1.91088 47.2122C1.00255 43.4612 4.40739 39.983 8.175 40.8138C8.25947 40.8318 8.34531 40.8456 8.42839 40.8664C9.27026 41.0644 9.69534 40.7293 9.74242 39.8487C9.86012 37.6498 10.7006 35.7653 12.2763 34.2298C15.1564 31.4217 19.572 31.0576 22.8896 33.3311C23.0461 33.4378 23.2012 33.5541 23.3742 33.6275C23.8866 33.8435 24.3269 33.5901 24.601 32.9393C26.3346 28.8352 30.0247 26.4398 34.4583 26.5422C39.4347 26.6572 43.7673 30.7695 44.1716 35.7363C44.2768 37.0268 44.155 38.284 43.8254 39.5302C43.5873 40.433 44.065 40.9536 44.9719 40.7888C48.1109 40.2211 50.9716 42.3812 51.2803 45.5506C51.5767 48.6024 49.1272 51.2914 45.9702 51.3024C39.4929 51.3246 33.0169 51.3093 26.5395 51.3093C20.0968 51.3093 13.6554 51.3149 7.21268 51.308L7.21406 51.3066ZM9.16918 19.4695C9.39487 20.0095 9.61226 20.5273 9.84904 21.0937C8.87563 21.4994 7.92715 21.8954 6.97867 22.29C6.85128 22.3426 6.71974 22.3883 6.59651 22.4492C6.10496 22.6957 5.91803 23.1443 6.11189 23.6054C6.30297 24.0596 6.76959 24.2645 7.27083 24.0693C8.16946 23.7176 9.05841 23.3396 9.9515 22.9726C10.126 22.9006 10.3018 22.8328 10.5261 22.7428C10.7518 23.2814 10.9678 23.7979 11.2046 24.36C10.6881 24.576 10.1966 24.7768 9.71057 24.9873C9.12902 25.2393 8.89917 25.6824 9.08748 26.1642C9.28687 26.6765 9.78257 26.8593 10.3752 26.6253C10.8695 26.4301 11.3583 26.2196 11.8817 26.0036L12.5588 27.6333C11.4954 28.075 10.4652 28.507 9.42949 28.9294C9.0044 29.1024 8.72747 29.3821 8.74825 29.8598C8.77456 30.476 9.37411 30.8429 9.99166 30.6034C10.8917 30.2545 11.7792 29.8751 12.6723 29.5081C12.8454 29.4375 13.0185 29.3697 13.2386 29.2824C13.4754 29.8501 13.6997 30.3874 13.9476 30.98C11.0384 32.4117 9.12902 34.6715 8.2207 37.9448C6.06342 32.744 3.95599 27.6652 1.8181 22.5129C4.28692 21.491 6.70451 20.49 9.17195 19.4681L9.16918 19.4695ZM22.5033 27.5143C21.9785 25.2808 20.3474 18.3271 19.824 16.0937C19.6579 15.3834 18.0754 16.3346 18.0754 16.3346C18.0754 16.3346 19.0472 20.5232 19.2078 21.21C19.8988 24.1662 20.5925 27.121 21.2848 30.0758C21.3194 30.224 21.3443 30.3735 21.3873 30.5895C20.7739 30.4469 20.2076 30.3389 19.6592 30.1714C19.536 30.134 19.4349 29.8958 19.3962 29.7338C18.3438 25.2684 17.3012 20.8015 16.2572 16.3346C16.0536 15.4665 15.8487 14.5983 15.6355 13.6983C16.2849 13.8215 16.883 13.9351 17.5297 14.0583C17.7166 14.8406 17.909 15.6617 18.1112 16.48C18.2718 17.1294 18.6692 17.4257 19.2023 17.3108C19.7229 17.1987 19.968 16.7237 19.824 16.0937C19.6592 15.3709 19.4986 14.6468 19.3145 13.9281C19.2466 13.6637 19.3186 13.5363 19.5499 13.3923C19.9708 13.132 20.3571 12.8163 20.8016 12.4923C21.0813 13.6692 21.3637 14.8489 21.6407 16.0286C22.6335 20.2767 23.6207 24.5276 24.6246 28.7743C24.7076 29.1287 24.655 29.3849 24.4349 29.6743C24.0749 30.1478 23.773 30.6643 23.3922 31.2472C23.0835 29.9471 22.7913 28.7314 22.5061 27.5143H22.5033ZM37.2054 8.71218C37.7039 10.9968 37.1154 13.0489 35.7585 14.9043C35.6602 15.0386 35.4193 15.1466 35.2503 15.1383C33.7341 15.0677 32.218 14.9791 30.7032 14.8641C30.4927 14.8489 30.2407 14.7105 30.1008 14.5484C28.8976 13.1693 28.928 11.0965 30.1396 9.71604C30.663 9.11926 31.1933 8.52663 31.6863 7.90631C32.8078 6.49675 33.7937 5.01103 34.1675 3.08776C35.7391 4.7521 36.743 6.5909 37.2054 8.70941V8.71218ZM51.1571 18.4656C51.1862 18.5985 51.074 18.7799 50.991 18.917C50.2585 20.141 49.526 21.365 48.7714 22.5766C48.6564 22.7608 48.4584 22.9463 48.2591 23.0169C46.5781 23.6137 44.6604 22.83 43.8808 21.228C43.788 21.0369 43.7728 20.7641 43.8213 20.5536C44.1494 19.1482 44.5011 17.747 44.8584 16.3485C44.8999 16.1837 44.9858 15.9802 45.1159 15.8971C46.2167 15.1882 47.3327 14.5028 48.5637 13.7357C48.374 14.2092 48.2341 14.5692 48.0887 14.9265C47.8478 15.5163 47.5986 16.1034 47.3604 16.6933C47.0973 17.3454 47.2524 17.837 47.7772 18.0405C48.2812 18.2358 48.7271 18.0018 48.986 17.387C49.3197 16.5936 49.6423 15.7946 49.9719 14.9998C50.0356 14.8461 50.1159 14.698 50.2336 14.4515C50.5617 15.8569 50.8733 17.1571 51.1571 18.4642V18.4656ZM42.8382 23.0045C44.1522 24.4113 45.739 25.0967 47.7453 25.0136C46.8079 27.2802 45.8927 29.4929 44.9387 31.8011C44.0207 29.8986 42.7897 28.3547 41.1351 27.1182C41.7083 25.7322 42.2622 24.3974 42.8382 23.0045ZM18.6221 7.00076C19.1165 7.91185 19.5955 8.78003 20.0566 9.65927C20.1106 9.76312 20.0843 9.93066 20.0483 10.0553C19.7479 11.0924 19.0915 11.8401 18.0475 12.1004C16.9869 12.3649 16.0329 12.0298 15.2796 11.2212C15.1619 11.0951 15.0608 10.8985 15.0567 10.731C15.0359 9.80328 15.047 8.87418 15.047 7.83016C16.4413 8.03232 17.585 7.83016 18.6235 7.00076H18.6221ZM35.0828 21.3567C34.9665 22.4548 34.8446 23.5943 34.7352 24.637C33.1775 24.8557 31.6863 25.0648 30.2033 25.2739V21.0646C31.8815 21.1657 33.4434 21.2598 35.0828 21.3581V21.3567ZM30.7239 16.6642C32.2055 16.7528 33.6552 16.8386 35.1479 16.9273V19.5636C33.568 19.4805 32.02 19.3989 30.3916 19.313C30.5148 18.3382 30.6145 17.5407 30.7253 16.6656L30.7239 16.6642ZM15.5801 6.10351C15.4472 6.07997 15.2478 5.85566 15.2491 5.7255C15.2616 4.55132 15.3045 3.37853 15.3627 2.20574C15.3696 2.06866 15.5233 1.93989 15.6105 1.80696C15.7255 1.89696 15.8833 1.96204 15.9484 2.07974C16.5023 3.07391 17.0395 4.07778 17.5809 5.07887C17.6377 5.18411 17.6875 5.29211 17.7567 5.43196C17.117 6.05089 16.3887 6.24474 15.5801 6.10489V6.10351Z" fill="white"/>
</g>
<defs>
<clipPath id="clip0_186_5012">
<rect width="53" height="53.0748" fill="white" transform="matrix(-1 0 0 1 53 0)"/>
</clipPath>
</defs>
</svg>
