<svg width="48" height="48" viewBox="0 0 48 48" fill="none" xmlns="http://www.w3.org/2000/svg">
<g clip-path="url(#clip0_186_4984)">
<path d="M38.3 12.6V10.8V1.5V0.5H5.6C2.8 0.5 0.5 2.8 0.5 5.6V42.4C0.5 45.2 2.8 47.5 5.6 47.5H38.3V22.4H47.6L44.8 17.5L47.6 12.6H38.3ZM5.6 2.5H36.3V4.6H6.2V6.6H36.3V8.7H5.6C3.9 8.7 2.5 7.3 2.5 5.6C2.5 3.9 3.9 2.5 5.6 2.5ZM2.5 42.4V9.6C3.4 10.3 4.4 10.7 5.6 10.7H7.2V45.5H5.6C3.9 45.5 2.5 44.1 2.5 42.4ZM36.3 45.5H9.2V10.7H36.3V12.5V22.3V45.5ZM44.1 20.4H38.3V14.6H44.1L42.4 17.5L44.1 20.4Z" fill="white"/>
</g>
<defs>
<clipPath id="clip0_186_4984">
<rect width="48" height="48" fill="white"/>
</clipPath>
</defs>
</svg>
